<svg height="100" width="100" xmlns="http://www.w3.org/2000/svg"><path d="m49.953125 5a45 45 0 0 0 -42.1953125 29.498047h-5.2578125a3.0020802 3.0020802 0 0 0 -3.00195312 3.001953v25a3.0020802 3.0020802 0 0 0 3.00195312 3.001953h5.2558594a45 45 0 0 0 42.2441406 29.498047 45 45 0 0 0 42.242188-29.498047h5.257812a3.0020802 3.0020802 0 0 0 3.00195-3.001953v-25a3.0020802 3.0020802 0 0 0 -3.00195-3.001953h-5.255859a45 45 0 0 0 -42.244141-29.498047 45 45 0 0 0 -.046875 0zm2.296875 5.113281c4.74082.806583 9.271215 4.712546 12.839844 11.19336 1.150318 2.089036 2.179454 4.433362 3.068359 6.974609h-15.908203zm-4.5.177735v17.990234h-15.074219c.888905-2.541247 1.916088-4.885573 3.066407-6.974609 3.358941-6.100013 7.571262-9.914479 12.007812-11.015625zm-10.367188 1.21875c-2.091605 2.116669-3.97104 4.697762-5.583984 7.626953-1.511737 2.745391-2.81257 5.818787-3.880859 9.144531h-12.109375c4.981877-7.835196 12.578669-13.831002 21.574218-16.771484zm26.46875.416015c8.457679 3.071171 15.586815 8.88019 20.339844 16.355469h-11.28125c-1.066084-3.325885-2.365553-6.399746-3.876953-9.144531-1.508979-2.740381-3.251266-5.174157-5.181641-7.210938zm-50.521484 20.855469h13.328125c-.135415.561146-.246662 1.14286-.367187 1.716797h-13.710938c.238209-.578892.484986-1.152447.75-1.716797zm17.976563 0h16.443359v1.716797h-16.841797c.131281-.573986.253028-1.157677.398438-1.716797zm20.943359 0h17.275391c.145409.55912.267157 1.142811.398437 1.716797h-17.673828zm21.919922 0h12.5c.265014.56435.511791 1.137905.75 1.716797h-12.884766c-.12012-.573966-.230184-1.155549-.365234-1.716797zm4.955078 9.71875c3.31316 0 5.804061.399702 7.472656 1.197266 1.680587.797564 2.564398 1.861888 2.648438 3.193359l-5.330078.128906c-.228092-.744832-.722244-1.278582-1.478516-1.601562-.74425-.329572-1.864694-.494141-3.365234-.494141-1.54853 0-2.762372.174092-3.638672.523438-.5642.224109-.847656.524678-.847656.90039 0 .342754.264778.635025.792968.878906.67223.309797 2.305528.632588 4.898438.96875 2.59291.336163 4.507714.6863 5.74414 1.048829 1.248434.355937 2.221717.846469 2.917969 1.472656.708244.619595 1.060547 1.386525 1.060547 2.302734 0 .830522-.419472 1.608927-1.259766 2.333985-.840293.725058-2.029861 1.265155-3.566406 1.621093-1.536531.349346-3.449387.525391-5.742187.525391-3.33717 0-5.900835-.421921-7.689453-1.265625-1.78863-.850295-2.856939-2.087491-3.205079-3.708984l5.185547-.275391c.31211.955759.944248 1.657252 1.892578 2.105469.96033.448218 2.248581.671875 3.869141.671875 1.7166 0 3.006787-.198264 3.871094-.59375.8763-.402077 1.314468-.868437 1.314453-1.402344 0-.342754-.184508-.633802-.556641-.871094-.360125-.243883-.997836-.454843-1.910156-.632812-.62422-.118646-2.044835-.329607-4.265625-.632813-2.857-.388894-4.863235-.866729-6.015625-1.433593-1.62058-.797565-2.429687-1.769107-2.429687-2.916016 0-.738241.376552-1.42899 1.132812-2.06836.76826-.64596 1.868365-1.136492 3.296875-1.472656 1.44051-.336163 3.174405-.503906 5.203125-.503906zm-69.125.248047h5.453125l3.982422 9.955078 4.826172-9.955078h6.33789l4.626953 10.125 4.050782-10.125h5.367187l-6.410156 14.494141h-5.65625l-5.257813-10.835938-5.240234 10.835938h-5.779297zm37.380859 0h18.095703v2.453125h-12.765624v3.429687h11.019531v2.451172h-11.019531v6.160157h-5.330079zm-34.800781 22.753906h13.523438c.112423.572949.214627 1.153881.341796 1.714844h-13.115234c-.264758-.563805-.511996-1.13675-.75-1.714844zm18.128906 0h17.041016v1.714844h-16.667969c-.136606-.559604-.250322-1.141541-.373047-1.714844zm21.541016 0h17.873047c-.122932.573221-.236456 1.155301-.373047 1.714844h-17.5zm22.472656 0h12.697266c-.238004.578094-.485242 1.151039-.75 1.714844h-12.289063c.12688-.561088.22972-1.141819.341797-1.714844zm-58.914062 6.214844h11.824218c1.117408 3.675312 2.5182 7.056312 4.166016 10.048828 1.293851 2.349702 2.761744 4.472502 4.369141 6.316406-8.466116-3.069345-15.602731-8.88427-20.359375-16.365234zm16.554687 0h15.386719v18.71875c-.27707-.01512-.550625-.043803-.826172-.064453-4.131407-1.349356-8.032047-5.057513-11.18164-10.777344-1.285615-2.334743-2.423763-4.983758-3.378907-7.876953zm19.886719 0h16.21875c-.955143 2.893196-2.09329 5.54221-3.378906 7.876953-3.084865 5.602277-6.888861 9.27839-10.925782 10.695312-.633645.06451-1.272044.11144-1.914062.146485zm20.947266 0h10.99414c-4.519391 7.107829-11.189382 12.703597-19.105468 15.876953 1.443492-1.728084 2.766526-3.683844 3.947265-5.828125 1.647728-2.992362 3.048739-6.372684 4.164063-10.048828z" fill="#000080" stroke-dashoffset="20" stroke-linecap="round" stroke-linejoin="round" stroke-width="8.653"/></svg>