<svg height="100" width="100" xmlns="http://www.w3.org/2000/svg"><path d="m49.953125 5a45 45 0 0 0 -42.1953125 29.498047h-5.2578125a3.0020802 3.0020802 0 0 0 -3.00195312 3.001953v25a3.0020802 3.0020802 0 0 0 3.00195312 3.001953h5.2558594a45 45 0 0 0 42.2441406 29.498047 45 45 0 0 0 42.242188-29.498047h5.257812a3.0020802 3.0020802 0 0 0 3.00195-3.001953v-25a3.0020802 3.0020802 0 0 0 -3.00195-3.001953h-5.255859a45 45 0 0 0 -42.244141-29.498047 45 45 0 0 0 -.046875 0zm2.296875 5.113281c4.74082.806583 9.271215 4.712546 12.839844 11.19336 1.150318 2.089036 2.179454 4.433362 3.068359 6.974609h-15.908203zm-4.5.177735v17.990234h-15.074219c.888905-2.541247 1.916088-4.885573 3.066407-6.974609 3.358941-6.100013 7.571262-9.914479 12.007812-11.015625zm-10.367188 1.21875c-2.091605 2.116669-3.97104 4.697762-5.583984 7.626953-1.511737 2.745391-2.81257 5.818787-3.880859 9.144531h-12.109375c4.981877-7.835196 12.578669-13.831002 21.574218-16.771484zm26.46875.416015c8.457679 3.071171 15.586815 8.88019 20.339844 16.355469h-11.28125c-1.066084-3.325885-2.365553-6.399746-3.876953-9.144531-1.508979-2.740381-3.251266-5.174157-5.181641-7.210938zm-50.521484 20.855469h13.328125c-.135415.561146-.246662 1.14286-.367187 1.716797h-13.710938c.238209-.578892.484986-1.152447.75-1.716797zm17.976563 0h16.443359v1.716797h-16.841797c.131281-.573986.253028-1.157677.398438-1.716797zm20.943359 0h17.275391c.145409.55912.267157 1.142811.398437 1.716797h-17.673828zm21.919922 0h12.5c.265014.56435.511791 1.137905.75 1.716797h-12.884766c-.12012-.573966-.230184-1.155549-.365234-1.716797zm5.966797 9.71875c3.004694 0 5.264107.399633 6.777343 1.197266 1.524126.797632 2.324181 1.861774 2.400391 3.193359l-4.833984.126953c-.206842-.744897-.653992-1.276601-1.339844-1.599609-.674971-.329601-1.691912-.496094-3.052734-.496094-1.404362 0-2.504103.176015-3.298829.525391-.511668.224128-.767578.522693-.767578.898437 0 .342784.23974.636956.71875.880859.609645.309824 2.089905.63256 4.441407.96875 2.351501.336194 4.087661.686269 5.208984 1.048829 1.132203.355968 2.015061.846416 2.646484 1.472656.642304.619649.962891 1.388399.962891 2.304687 0 .830593-.380519 1.608864-1.142578 2.333985-.762058.72512-1.840893 1.265127-3.234375 1.621093-1.393481.349377-3.129641.523438-5.208985.523438-3.026463 0-5.350554-.421849-6.972656-1.265625-1.622102-.850368-2.590542-2.085397-2.90625-3.707031l4.703125-.277344c.283058.95584.854809 1.657213 1.714844 2.105469.870933.448256 2.040086.671875 3.509766.671875 1.556784 0 2.727882-.19823 3.511718-.59375.794718-.402112 1.191407-.868392 1.191407-1.402344 0-.342785-.168374-.633782-.50586-.871094-.326596-.243904-.903092-.454828-1.730468-.632812-.566108-.118657-1.857078-.329581-3.871094-.632813-2.591002-.388928-4.408009-.866682-5.453125-1.433593-1.469689-.797635-2.205078-1.770961-2.205078-2.917969 0-.738305.343445-1.425029 1.029297-2.064453.69674-.646017 1.692775-1.138418 2.988281-1.47461 1.306394-.336192 2.878926-.503906 4.71875-.503906zm-70.136719.246094h4.947266l3.609375 9.958984 4.376953-9.958984h5.748047l4.197265 10.126953 3.673828-10.126953h4.865235l-5.8125 14.496094h-5.126953l-4.769532-10.835938-4.751953 10.835938h-5.242187zm33.802734 0h7.234375l4.34375 9.888672 4.294922-9.888672h7.25v14.496094h-4.490234v-11.410157l-4.751953 11.410157h-4.654297l-4.736328-11.410157v11.410157h-4.490235zm-31.222656 22.755859h13.523438c.112423.572949.214627 1.153881.341796 1.714844h-13.115234c-.264758-.563805-.511996-1.13675-.75-1.714844zm18.128906 0h17.041016v1.714844h-16.667969c-.136606-.559604-.250322-1.141541-.373047-1.714844zm21.541016 0h17.873047c-.122932.573221-.236456 1.155301-.373047 1.714844h-17.5zm22.472656 0h12.697266c-.238004.578094-.485242 1.151039-.75 1.714844h-12.289063c.12688-.561088.22972-1.141819.341797-1.714844zm-58.914062 6.214844h11.824218c1.117408 3.675312 2.5182 7.056312 4.166016 10.048828 1.293851 2.349702 2.761744 4.472502 4.369141 6.316406-8.466116-3.069345-15.602731-8.88427-20.359375-16.365234zm16.554687 0h15.386719v18.71875c-.27707-.01512-.550625-.043803-.826172-.064453-4.131407-1.349356-8.032047-5.057513-11.18164-10.777344-1.285615-2.334743-2.423763-4.983758-3.378907-7.876953zm19.886719 0h16.21875c-.955143 2.893196-2.09329 5.54221-3.378906 7.876953-3.084865 5.602277-6.888861 9.27839-10.925782 10.695312-.633645.06451-1.272044.11144-1.914062.146485zm20.947266 0h10.99414c-4.519391 7.107829-11.189382 12.703597-19.105468 15.876953 1.443492-1.728084 2.766526-3.683844 3.947265-5.828125 1.647728-2.992362 3.048739-6.372684 4.164063-10.048828z" fill="#000080" stroke-dashoffset="20" stroke-linecap="round" stroke-linejoin="round" stroke-width="8.653"/></svg>