<svg height="100" width="100" xmlns="http://www.w3.org/2000/svg"><path d="m49.953125 5c-18.85619.0210698-35.699592 11.796015-42.1953125 29.498047h-5.2578125c-1.65790381.00007-3.00188289 1.344049-3.00195312 3.001953v25c.00007023 1.657904 1.34404931 3.001883 3.00195312 3.001953h5.2558594c6.5018906 17.718812 23.3700616 29.497441 42.2441406 29.498047 18.873364-.001425 35.740544-11.779907 42.242188-29.498047h5.257812c1.657903-.000072 3.00188-1.34405 3.00195-3.001953v-25c-.00007-1.657903-1.344047-3.001881-3.00195-3.001953h-5.255859c-6.501891-17.718812-23.370062-29.4974413-42.244141-29.498047zm2.296875 5.113281c4.74082.806583 9.271215 4.712546 12.839844 11.19336 1.150318 2.089036 2.179454 4.433362 3.068359 6.974609h-15.908203zm-4.5.177735v17.990234h-15.074219c.888905-2.541247 1.916088-4.885573 3.066407-6.974609 3.358941-6.100013 7.571262-9.914479 12.007812-11.015625zm-10.367188 1.21875c-2.091605 2.116669-3.97104 4.697762-5.583984 7.626953-1.511737 2.745391-2.81257 5.818787-3.880859 9.144531h-12.109375c4.981877-7.835196 12.578669-13.831002 21.574218-16.771484zm26.46875.416015c8.457679 3.071171 15.586815 8.88019 20.339844 16.355469h-11.28125c-1.066084-3.325885-2.365553-6.399746-3.876953-9.144531-1.508979-2.740381-3.251266-5.174157-5.181641-7.210938zm-50.521484 20.855469h13.328125c-.135415.561146-.246662 1.14286-.367187 1.716797h-13.710938c.238209-.578892.484986-1.152447.75-1.716797zm17.976563 0h16.443359v1.716797h-16.841797c.131281-.573986.253028-1.157677.398438-1.716797zm20.943359 0h17.275391c.145409.55912.267157 1.142811.398437 1.716797h-17.673828zm21.919922 0h12.5c.265014.56435.511791 1.137905.75 1.716797h-12.884766c-.12012-.573966-.230184-1.155549-.365234-1.716797zm7.974609 9.71875c2.39309 0 4.193227.397663 5.398438 1.195312 1.21389.797647 1.851409 1.863702 1.912109 3.195313l-3.849609.126953c-.16474-.744911-.52211-1.276595-1.06836-1.599609-.53757-.329606-1.34782-.496094-2.43164-.496094-1.11852 0-1.994003.174054-2.626953.523437-.40752.224134-.611328.52464-.611328.900391 0 .342792.190755.63695.572265.880859.48555.30983 1.66426.632552 3.537109.96875 1.872861.336199 3.257321.684309 4.150391 1.046876.90175.355975 1.602579.848356 2.105469 1.474609.511569.61966.767578 1.388381.767578 2.304687 0 .830608-.303216 1.608851-.910156 2.333985-.60694.725135-1.466333 1.265118-2.576172 1.621093-1.10983.349383-2.492348.523438-4.148438.523438-2.410431 0-4.260814-.421833-5.552734-1.265625-1.291921-.850385-2.064955-2.087319-2.316406-3.708984l3.746094-.277344c.22544.955858.680254 1.659157 1.365234 2.107422.69365.448265 1.626345.673828 2.796875.673828 1.2399 0 2.172585-.198222 2.796875-.59375.63295-.40212.949219-.870333.949219-1.404297 0-.342791-.135507-.633778-.404297-.871094-.26011-.24391-.717993-.454825-1.376953-.632812-.450879-.118658-1.477962-.329575-3.082032-.632813-2.063611-.388936-3.513322-.86667-4.345703-1.433593-1.170529-.797648-1.755859-1.770938-1.755859-2.917969 0-.738319.274063-1.425016.820312-2.064453.55492-.646029 1.34906-1.138411 2.38086-1.47461 1.040471-.336198 2.292482-.503906 3.757812-.503906zm-72.144531.246094h3.941406l2.873047 9.958984 3.486328-9.958984h4.578125l3.34375 10.126953 2.925782-10.126953h3.875l-4.63086 14.498047h-4.082031l-3.796875-10.837891-3.78711 10.837891h-4.173828zm26.923828 0h5.761719l3.458984 9.888672 3.419922-9.888672h5.775391v14.498047h-3.578125v-11.41211l-3.785157 11.41211h-3.705078l-3.771484-11.41211v11.41211h-3.576172zm20.900391 0h15.152343v2.453125h-5.646484v12.044922h-3.849609v-12.044922h-5.65625zm-45.244141 22.755859h13.523438c.112423.572949.214628 1.153881.341796 1.714844h-13.115234c-.264758-.563805-.511996-1.13675-.75-1.714844zm18.128906 0h17.041016v1.714844h-16.667969c-.136606-.559604-.250322-1.141541-.373047-1.714844zm21.541016 0h17.873047c-.122932.573221-.236456 1.155301-.373047 1.714844h-17.5zm22.472656 0h12.697266c-.238004.578094-.485242 1.151039-.75 1.714844h-12.289063c.12688-.561088.22972-1.141819.341797-1.714844zm-58.914062 6.214844h11.824218c1.117409 3.675312 2.5182 7.056312 4.166016 10.048828 1.293851 2.349702 2.761744 4.472502 4.369141 6.316406-8.466116-3.069345-15.602731-8.88427-20.359375-16.365234zm16.554687 0h15.386719v18.71875c-.27707-.01512-.550625-.043803-.826172-.064453-4.131407-1.349356-8.032048-5.057513-11.18164-10.777344-1.285615-2.334743-2.423763-4.983758-3.378907-7.876953zm19.886719 0h16.21875c-.955143 2.893196-2.09329 5.54221-3.378906 7.876953-3.084865 5.602277-6.888861 9.278391-10.925782 10.695312-.633645.06451-1.272044.11144-1.914062.146485zm20.947266 0h10.99414c-4.519391 7.107829-11.189382 12.703597-19.105468 15.876953 1.443492-1.728084 2.766526-3.683844 3.947265-5.828125 1.647728-2.992362 3.048739-6.372684 4.164063-10.048828z" fill="#000080" stroke-dashoffset="20" stroke-linecap="round" stroke-linejoin="round" stroke-width="8.653"/></svg>